<svg width="34" height="34" viewBox="0 0 34 28" fill="none" xmlns="http://www.w3.org/2000/svg">
<path d="M28.6667 0.666504H5.33334C4.00726 0.666504 2.73549 1.19329 1.79781 2.13097C0.860128 3.06865 0.333344 4.34042 0.333344 5.6665V22.3332C0.333344 23.6593 0.860128 24.931 1.79781 25.8687C2.73549 26.8064 4.00726 27.3332 5.33334 27.3332H28.6667C29.9928 27.3332 31.2645 26.8064 32.2022 25.8687C33.1399 24.931 33.6667 23.6593 33.6667 22.3332V5.6665C33.6667 4.34042 33.1399 3.06865 32.2022 2.13097C31.2645 1.19329 29.9928 0.666504 28.6667 0.666504V0.666504ZM27.9833 3.99984L18.1833 13.7998C18.0284 13.9561 17.8441 14.08 17.641 14.1647C17.4379 14.2493 17.22 14.2928 17 14.2928C16.78 14.2928 16.5621 14.2493 16.359 14.1647C16.156 14.08 15.9716 13.9561 15.8167 13.7998L6.01668 3.99984H27.9833ZM30.3333 22.3332C30.3333 22.7752 30.1578 23.1991 29.8452 23.5117C29.5326 23.8242 29.1087 23.9998 28.6667 23.9998H5.33334C4.89132 23.9998 4.46739 23.8242 4.15483 23.5117C3.84227 23.1991 3.66668 22.7752 3.66668 22.3332V6.34984L13.4667 16.1498C14.4042 17.0862 15.675 17.6121 17 17.6121C18.325 17.6121 19.5958 17.0862 20.5333 16.1498L30.3333 6.34984V22.3332Z" fill="url(#paint0_linear_175_9)"/>
<defs>
<linearGradient id="paint0_linear_175_9" x1="17" y1="0.666504" x2="17" y2="27.3332" gradientUnits="userSpaceOnUse">
<stop stop-color="#F7C08A"/>
<stop offset="1" stop-color="#AC6EDC"/>
</linearGradient>
</defs>
</svg>
