<svg width="34" height="34" viewBox="0 0 34 34" fill="none" xmlns="http://www.w3.org/2000/svg">
<path d="M17 12.8668C16.1825 12.8668 15.3834 13.1092 14.7037 13.5634C14.0239 14.0176 13.4942 14.6631 13.1813 15.4184C12.8685 16.1737 12.7866 17.0047 12.9461 17.8065C13.1056 18.6083 13.4992 19.3448 14.0773 19.9229C14.6554 20.5009 15.3918 20.8946 16.1936 21.0541C16.9954 21.2136 17.8265 21.1317 18.5818 20.8189C19.337 20.506 19.9826 19.9762 20.4368 19.2965C20.8909 18.6168 21.1333 17.8177 21.1333 17.0002C21.1333 16.4574 21.0264 15.9199 20.8187 15.4184C20.611 14.9169 20.3065 14.4613 19.9227 14.0775C19.5389 13.6936 19.0832 13.3892 18.5818 13.1815C18.0803 12.9737 17.5428 12.8668 17 12.8668ZM33.55 8.7835C33.5412 7.49643 33.3042 6.22112 32.85 5.01683C32.5155 4.1356 31.9979 3.33532 31.3314 2.6688C30.6649 2.00229 29.8646 1.48469 28.9833 1.15016C27.7791 0.695936 26.5037 0.458931 25.2167 0.450163C23.0667 0.333496 22.4333 0.333496 17 0.333496C11.5667 0.333496 10.9333 0.333496 8.78334 0.450163C7.49627 0.458931 6.22096 0.695936 5.01668 1.15016C4.13544 1.48469 3.33517 2.00229 2.66865 2.6688C2.00214 3.33532 1.48454 4.1356 1.15001 5.01683C0.695783 6.22112 0.458778 7.49643 0.45001 8.7835C0.333343 10.9335 0.333344 11.5668 0.333344 17.0002C0.333344 22.4335 0.333343 23.0668 0.45001 25.2168C0.46795 26.5084 0.704634 27.7877 1.15001 29.0002C1.48306 29.8774 2.00022 30.673 2.66668 31.3335C3.33033 32.004 4.13233 32.5216 5.01668 32.8502C6.22096 33.3044 7.49627 33.5414 8.78334 33.5502C10.9333 33.6668 11.5667 33.6668 17 33.6668C22.4333 33.6668 23.0667 33.6668 25.2167 33.5502C26.5037 33.5414 27.7791 33.3044 28.9833 32.8502C29.8677 32.5216 30.6697 32.004 31.3333 31.3335C31.9998 30.673 32.517 29.8774 32.85 29.0002C33.3038 27.79 33.5408 26.5093 33.55 25.2168C33.6667 23.0668 33.6667 22.4335 33.6667 17.0002C33.6667 11.5668 33.6667 10.9335 33.55 8.7835ZM29.3167 22.1168C29.2632 23.1453 29.0437 24.1584 28.6667 25.1168C28.3431 25.9163 27.8621 26.6426 27.2523 27.2524C26.6424 27.8623 25.9162 28.3433 25.1167 28.6668C24.1492 29.0228 23.1305 29.2198 22.1 29.2502C20.7833 29.2502 20.4333 29.2502 17 29.2502C13.5667 29.2502 13.2167 29.2502 11.9 29.2502C10.8696 29.2198 9.85082 29.0228 8.88334 28.6668C8.05685 28.3597 7.31047 27.8697 6.70001 27.2335C6.09612 26.6356 5.62975 25.9133 5.33334 25.1168C4.97594 24.1504 4.78435 23.1305 4.76668 22.1002C4.76668 20.7835 4.76668 20.4335 4.76668 17.0002C4.76668 13.5668 4.76668 13.2168 4.76668 11.9002C4.78435 10.8699 4.97594 9.84997 5.33334 8.8835C5.64048 8.057 6.13047 7.31062 6.76668 6.70016C7.36723 6.09954 8.08878 5.63365 8.88334 5.3335C9.85082 4.97751 10.8696 4.78051 11.9 4.75016C13.2167 4.75016 13.5667 4.75016 17 4.75016C20.4333 4.75016 20.7833 4.75016 22.1 4.75016C23.1305 4.78051 24.1492 4.97751 25.1167 5.3335C25.9432 5.64063 26.6896 6.13062 27.3 6.76683C27.9039 7.36474 28.3703 8.08705 28.6667 8.8835C29.0227 9.85098 29.2197 10.8697 29.25 11.9002C29.25 13.2168 29.25 13.5668 29.25 17.0002C29.25 20.4335 29.3667 20.7835 29.3167 22.1002V22.1168ZM26.65 9.71683C26.4516 9.17847 26.1387 8.68957 25.733 8.28385C25.3273 7.87814 24.8384 7.56527 24.3 7.36683C23.5608 7.1106 22.7823 6.98648 22 7.00016C20.7 7.00016 20.3333 7.00016 17 7.00016C13.6667 7.00016 13.3 7.00016 12 7.00016C11.2138 7.00785 10.4351 7.15455 9.70001 7.4335C9.16989 7.62292 8.68617 7.92302 8.28098 8.31383C7.8758 8.70465 7.55845 9.17723 7.35001 9.70016C7.10797 10.4424 6.98973 11.2195 7.00001 12.0002C7.00001 13.3002 7.00001 13.6668 7.00001 17.0002C7.00001 20.3335 7.00001 20.7002 7.00001 22.0002C7.01653 22.7855 7.16296 23.5627 7.43334 24.3002C7.63178 24.8385 7.94465 25.3274 8.35037 25.7331C8.75608 26.1389 9.24498 26.4517 9.78334 26.6502C10.4945 26.9117 11.2428 27.058 12 27.0835C13.3 27.0835 13.6667 27.0835 17 27.0835C20.3333 27.0835 20.7 27.0835 22 27.0835C22.7862 27.0758 23.5649 26.9291 24.3 26.6502C24.8384 26.4517 25.3273 26.1389 25.733 25.7331C26.1387 25.3274 26.4516 24.8385 26.65 24.3002C26.929 23.565 27.0757 22.7864 27.0833 22.0002C27.0833 20.7002 27.0833 20.3335 27.0833 17.0002C27.0833 13.6668 27.0833 13.3002 27.0833 12.0002C27.0838 11.2132 26.9368 10.433 26.65 9.70016V9.71683ZM17 23.3668C16.1647 23.3668 15.3376 23.202 14.5661 22.8819C13.7946 22.5617 13.0939 22.0925 12.504 21.5011C11.9141 20.9097 11.4467 20.2077 11.1286 19.4353C10.8104 18.663 10.6478 17.8355 10.65 17.0002C10.65 15.7402 11.0238 14.5087 11.7242 13.4613C12.4245 12.414 13.4198 11.5979 14.5841 11.1166C15.7485 10.6352 17.0294 10.5101 18.2649 10.7571C19.5004 11.0041 20.6348 11.6121 21.5245 12.5042C22.4142 13.3962 23.0193 14.5322 23.263 15.7683C23.5068 17.0044 23.3783 18.2851 22.8939 19.4482C22.4095 20.6112 21.5909 21.6044 20.5417 22.302C19.4925 22.9995 18.2599 23.3701 17 23.3668ZM23.6667 11.8835C23.2982 11.8445 22.9573 11.6705 22.7095 11.3951C22.4617 11.1197 22.3246 10.7623 22.3246 10.3918C22.3246 10.0213 22.4617 9.66396 22.7095 9.38855C22.9573 9.11313 23.2982 8.93916 23.6667 8.90016C24.0351 8.93916 24.3761 9.11313 24.6239 9.38855C24.8717 9.66396 25.0088 10.0213 25.0088 10.3918C25.0088 10.7623 24.8717 11.1197 24.6239 11.3951C24.3761 11.6705 24.0351 11.8445 23.6667 11.8835Z" fill="url(#paint0_linear_175_19)"/>
<defs>
<linearGradient id="paint0_linear_175_19" x1="17" y1="0.333496" x2="17" y2="33.6668" gradientUnits="userSpaceOnUse">
<stop stop-color="#F7C08A"/>
<stop offset="1" stop-color="#AC6EDC"/>
</linearGradient>
</defs>
</svg>
