<svg width="34" height="34" viewBox="0 0 34 34" fill="none" xmlns="http://www.w3.org/2000/svg">
<path d="M31.1166 0.333241H2.88332C2.56595 0.328833 2.25082 0.386987 1.95593 0.504381C1.66104 0.621774 1.39216 0.796109 1.16465 1.01743C0.937139 1.23875 0.755455 1.50271 0.629972 1.79426C0.50449 2.0858 0.437666 2.3992 0.433319 2.71657V31.2832C0.437666 31.6006 0.50449 31.914 0.629972 32.2056C0.755455 32.4971 0.937139 32.7611 1.16465 32.9824C1.39216 33.2037 1.66104 33.378 1.95593 33.4954C2.25082 33.6128 2.56595 33.671 2.88332 33.6666H31.1166C31.434 33.671 31.7491 33.6128 32.044 33.4954C32.3389 33.378 32.6078 33.2037 32.8353 32.9824C33.0628 32.7611 33.2445 32.4971 33.37 32.2056C33.4955 31.914 33.5623 31.6006 33.5667 31.2832V2.71657C33.5623 2.3992 33.4955 2.0858 33.37 1.79426C33.2445 1.50271 33.0628 1.23875 32.8353 1.01743C32.6078 0.796109 32.3389 0.621774 32.044 0.504381C31.7491 0.386987 31.434 0.328833 31.1166 0.333241ZM10.4833 28.2332H5.48332V13.2332H10.4833V28.2332ZM7.98332 11.1332C7.29376 11.1332 6.63244 10.8593 6.14484 10.3717C5.65725 9.88412 5.38332 9.2228 5.38332 8.53324C5.38332 7.84368 5.65725 7.18236 6.14484 6.69476C6.63244 6.20717 7.29376 5.93324 7.98332 5.93324C8.34948 5.89172 8.72028 5.928 9.07144 6.03971C9.42261 6.15143 9.74622 6.33606 10.0211 6.58151C10.2959 6.82696 10.5159 7.12771 10.6664 7.46404C10.817 7.80038 10.8948 8.16473 10.8948 8.53324C10.8948 8.90175 10.817 9.2661 10.6664 9.60244C10.5159 9.93878 10.2959 10.2395 10.0211 10.485C9.74622 10.7304 9.42261 10.9151 9.07144 11.0268C8.72028 11.1385 8.34948 11.1748 7.98332 11.1332ZM28.5167 28.2332H23.5167V20.1832C23.5167 18.1666 22.8 16.8499 20.9833 16.8499C20.4211 16.854 19.8736 17.0304 19.4147 17.3552C18.9558 17.68 18.6075 18.1377 18.4167 18.6666C18.2862 19.0583 18.2297 19.4709 18.25 19.8832V28.2166H13.25C13.25 28.2166 13.25 14.5832 13.25 13.2166H18.25V15.3332C18.7042 14.5451 19.3648 13.8958 20.1607 13.4552C20.9566 13.0147 21.8576 12.7997 22.7666 12.8332C26.1 12.8332 28.5167 14.9832 28.5167 19.5999V28.2332Z" fill="url(#paint0_linear_175_79)"/>
<defs>
<linearGradient id="paint0_linear_175_79" x1="17" y1="0.333008" x2="17" y2="33.6668" gradientUnits="userSpaceOnUse">
<stop stop-color="#F7C08A"/>
<stop offset="1" stop-color="#AC6EDC"/>
</linearGradient>
</defs>
</svg>
